REM DIRINDEX 1\2\5,1\2\6,1\2\7,1\2\8,1\3\9,1\3\10,1\3\11,1\4\12,1\4\13,1\4\14,1\4\15,1\4\16
REM DIRNAME folder01,folder02,folder03,folder04,folder05,folder06,folder07,folder08,folder09,folder10,folder11,folder12,folder13,folder14,folder15,folder16
TITLE ""
FILE "1200_2_sec01_0220_0241.mp3" MP3
  TRACK 01 AUDIO
    TITLE "0:"
    INDEX 01 00:00:00
  TRACK 02 AUDIO
    TITLE "10:cjc034_00452"
    INDEX 01 00:00:17
  TRACK 03 AUDIO
    TITLE "0:"
    INDEX 01 00:05:32
  TRACK 04 AUDIO
    TITLE "9:cjc034_00453"
    INDEX 01 00:05:52
  TRACK 05 AUDIO
    TITLE "0:"
    INDEX 01 00:06:67
  TRACK 06 AUDIO
    TITLE "10:cjc034_00454"
    INDEX 01 00:07:70
  TRACK 07 AUDIO
    TITLE "0:"
    INDEX 01 00:09:34
  TRACK 08 AUDIO
    TITLE "9:cjc034_00455"
    INDEX 01 00:09:55
  TRACK 09 AUDIO
    TITLE "0:"
    INDEX 01 00:11:17
  TRACK 10 AUDIO
    TITLE "10:cjc034_00456"
    INDEX 01 00:12:12
  TRACK 11 AUDIO
    TITLE "0:"
    INDEX 01 00:13:53
  TRACK 12 AUDIO
    TITLE "9:cjc034_00457"
    INDEX 01 00:13:55
  TRACK 13 AUDIO
    TITLE "0:"
    INDEX 01 00:17:29
  TRACK 14 AUDIO
    TITLE "10:cjc034_00458"
    INDEX 01 00:18:25
  TRACK 15 AUDIO
    TITLE "0:"
    INDEX 01 00:19:62
  TRACK 16 AUDIO
    TITLE "9:cjc034_00459"
    INDEX 01 00:20:08
  TRACK 17 AUDIO
    TITLE "0:"
    INDEX 01 00:22:17
  TRACK 18 AUDIO
    TITLE "10:cjc034_00460"
    INDEX 01 00:23:14
  TRACK 19 AUDIO
    TITLE "0:"
    INDEX 01 00:24:65
  TRACK 20 AUDIO
    TITLE "9:cjc034_00461"
    INDEX 01 00:25:13
  TRACK 21 AUDIO
    TITLE "0:"
    INDEX 01 00:28:29
  TRACK 22 AUDIO
    TITLE "10:cjc034_00462"
    INDEX 01 00:29:17
  TRACK 23 AUDIO
    TITLE "0:"
    INDEX 01 00:30:40
  TRACK 24 AUDIO
    TITLE "9:cjc034_00463"
    INDEX 01 00:30:67
  TRACK 25 AUDIO
    TITLE "0:"
    INDEX 01 00:33:50
  TRACK 26 AUDIO
    TITLE "10:cjc034_00464"
    INDEX 01 00:34:49
  TRACK 27 AUDIO
    TITLE "0:"
    INDEX 01 00:38:43
  TRACK 28 AUDIO
    TITLE "9:cjc034_00465"
    INDEX 01 00:38:61
  TRACK 29 AUDIO
    TITLE "0:"
    INDEX 01 00:39:74
  TRACK 30 AUDIO
    TITLE "10:cjc034_00466"
    INDEX 01 00:41:00
  TRACK 31 AUDIO
    TITLE "0:"
    INDEX 01 00:42:41
  TRACK 32 AUDIO
    TITLE "9:cjc034_00467"
    INDEX 01 00:42:63
  TRACK 33 AUDIO
    TITLE "0:"
    INDEX 01 00:44:34
  TRACK 34 AUDIO
    TITLE "10:cjc034_00468"
    INDEX 01 00:45:33
  TRACK 35 AUDIO
    TITLE "0:"
    INDEX 01 00:48:32
  TRACK 36 AUDIO
    TITLE "9:cjc034_00469"
    INDEX 01 00:48:36
  TRACK 37 AUDIO
    TITLE "0:"
    INDEX 01 00:51:65
  TRACK 38 AUDIO
    TITLE "11:cjc034_00470"
    INDEX 01 00:53:41
  TRACK 39 AUDIO
    TITLE "0:"
    INDEX 01 00:56:67
  TRACK 40 AUDIO
    TITLE "10:cjc034_00471"
    INDEX 01 00:58:01
  TRACK 41 AUDIO
    TITLE "0:"
    INDEX 01 00:59:14
  TRACK 42 AUDIO
    TITLE "9:cjc034_00472"
    INDEX 01 00:59:34
  TRACK 43 AUDIO
    TITLE "0:"
    INDEX 01 01:00:68
  TRACK 44 AUDIO
    TITLE "10:cjc034_00473"
    INDEX 01 01:01:68
  TRACK 45 AUDIO
    TITLE "0:"
    INDEX 01 01:03:26
  TRACK 46 AUDIO
    TITLE "9:cjc034_00474"
    INDEX 01 01:03:29
  TRACK 47 AUDIO
    TITLE "0:"
    INDEX 01 01:06:22
  TRACK 48 AUDIO
    TITLE "10:cjc034_00475"
    INDEX 01 01:07:21
  TRACK 49 AUDIO
    TITLE "0:"
    INDEX 01 01:08:17
  TRACK 50 AUDIO
    TITLE "9:cjc034_00476"
    INDEX 01 01:08:38
  TRACK 51 AUDIO
    TITLE "0:"
    INDEX 01 01:10:02
  TRACK 52 AUDIO
    TITLE "10:cjc034_00477"
    INDEX 01 01:11:00
  TRACK 53 AUDIO
    TITLE "0:"
    INDEX 01 01:13:67
  TRACK 54 AUDIO
    TITLE "9:cjc034_00478"
    INDEX 01 01:14:14
  TRACK 55 AUDIO
    TITLE "0:"
    INDEX 01 01:15:37
  TRACK 56 AUDIO
    TITLE "10:cjc034_00479"
    INDEX 01 01:16:30
  TRACK 57 AUDIO
    TITLE "0:"
    INDEX 01 01:18:49
  TRACK 58 AUDIO
    TITLE "9:cjc034_00480"
    INDEX 01 01:18:72
  TRACK 59 AUDIO
    TITLE "0:"
    INDEX 01 01:20:20
  TRACK 60 AUDIO
    TITLE "10:cjc034_00481"
    INDEX 01 01:21:18
  TRACK 61 AUDIO
    TITLE "0:"
    INDEX 01 01:22:35
  TRACK 62 AUDIO
    TITLE "9:cjc034_00482"
    INDEX 01 01:22:52
  TRACK 63 AUDIO
    TITLE "0:"
    INDEX 01 01:26:52
  TRACK 64 AUDIO
    TITLE "10:cjc034_00483"
    INDEX 01 01:27:55
  TRACK 65 AUDIO
    TITLE "0:"
    INDEX 01 01:28:65
  TRACK 66 AUDIO
    TITLE "9:cjc034_00484"
    INDEX 01 01:29:11
  TRACK 67 AUDIO
    TITLE "0:"
    INDEX 01 01:31:08
  TRACK 68 AUDIO
    TITLE "10:cjc034_00485"
    INDEX 01 01:32:04
  TRACK 69 AUDIO
    TITLE "0:"
    INDEX 01 01:33:19
  TRACK 70 AUDIO
    TITLE "9:cjc034_00486"
    INDEX 01 01:33:40
  TRACK 71 AUDIO
    TITLE "0:"
    INDEX 01 01:35:02
  TRACK 72 AUDIO
    TITLE "10:cjc034_00487"
    INDEX 01 01:36:00
  TRACK 73 AUDIO
    TITLE "0:"
    INDEX 01 01:37:07
  TRACK 74 AUDIO
    TITLE "9:cjc034_00488"
    INDEX 01 01:37:28
  TRACK 75 AUDIO
    TITLE "0:"
    INDEX 01 01:38:67
  TRACK 76 AUDIO
    TITLE "10:cjc034_00489"
    INDEX 01 01:39:64
  TRACK 77 AUDIO
    TITLE "0:"
    INDEX 01 01:41:40
  TRACK 78 AUDIO
    TITLE "9:cjc034_00490"
    INDEX 01 01:41:67
  TRACK 79 AUDIO
    TITLE "0:"
    INDEX 01 01:43:58
  TRACK 80 AUDIO
    TITLE "10:cjc034_00491"
    INDEX 01 01:44:54
  TRACK 81 AUDIO
    TITLE "0:"
    INDEX 01 01:46:47
  TRACK 82 AUDIO
    TITLE "9:cjc034_00492"
    INDEX 01 01:46:66
  TRACK 83 AUDIO
    TITLE "0:"
    INDEX 01 01:50:43
  TRACK 84 AUDIO
    TITLE "10:cjc034_00493"
    INDEX 01 01:51:46
  TRACK 85 AUDIO
    TITLE "0:"
    INDEX 01 01:52:71
  TRACK 86 AUDIO
    TITLE "9:cjc034_00494"
    INDEX 01 01:53:18
  TRACK 87 AUDIO
    TITLE "0:"
    INDEX 01 01:55:05
  TRACK 88 AUDIO
    TITLE "10:cjc034_00495"
    INDEX 01 01:56:04
  TRACK 89 AUDIO
    TITLE "0:"
    INDEX 01 01:57:09
  TRACK 90 AUDIO
    TITLE "9:cjc034_00496"
    INDEX 01 01:57:29
  TRACK 91 AUDIO
    TITLE "0:"
    INDEX 01 02:00:25
